<svg xmlns="http://www.w3.org/2000/svg" xmlns:xlink="http://www.w3.org/1999/xlink" id="Layer_1" x="0" y="0" version="1.1" viewBox="0 0 72 24" style="enable-background:new 0 0 72 24" xml:space="preserve"><style type="text/css">.st0{fill:#fff}</style><g><polygon points="57.9 5.2 46.6 5.2 46.6 7.3 51.2 7.3 51.2 18.2 53.4 18.2 53.4 7.3 57.9 7.3" class="st0"/><polygon points="16.9 7.3 16.9 7.3 16.9 18.1 6.5 5.2 3.7 5.2 3.7 18.2 5.9 18.2 5.9 8 14.2 18.2 16.9 18.2 17 18.2 28.1 18.2 28.1 16.1 19.1 16.1 19.1 12.7 26.4 12.7 26.4 10.6 19.1 10.6 19.1 7.3 28.1 7.3 28.1 5.2 16.9 5.2" class="st0"/><polygon points="44.2 5.2 41.3 5.2 37.5 9.9 33.8 5.2 30.8 5.2 41.3 18.2 44.2 18.2 39 11.7" class="st0"/><polygon points="30.8 18.2 33.8 18.2 36.8 14.5 35.3 12.7" class="st0"/><path d="M58.4,17c-0.2,0-0.3,0.1-0.4,0.2s-0.2,0.2-0.2,0.4c0,0.2,0.1,0.3,0.2,0.4s0.3,0.2,0.4,0.2c0.1,0,0.2,0,0.3-0.1 c0.1-0.1,0.2-0.1,0.2-0.2c0.1-0.1,0.1-0.2,0.1-0.3c0-0.2-0.1-0.3-0.2-0.4C58.7,17,58.6,17,58.4,17z" class="st0"/><path d="M62.2,16.5c0,0.2,0,0.4-0.1,0.5c-0.1,0.1-0.1,0.2-0.3,0.3c-0.1,0.1-0.2,0.1-0.4,0.1c-0.1,0-0.3,0-0.4-0.1 c-0.1-0.1-0.2-0.1-0.3-0.2s-0.1-0.2-0.1-0.4h-1c0,0.3,0.1,0.6,0.2,0.8c0.1,0.2,0.4,0.4,0.6,0.5s0.5,0.2,0.9,0.2 c0.4,0,0.7-0.1,0.9-0.2c0.3-0.1,0.5-0.3,0.6-0.6c0.1-0.3,0.2-0.6,0.2-0.9v-3.8h-1V16.5z" class="st0"/><path d="M68.2,15.9c-0.1-0.2-0.2-0.3-0.4-0.4c-0.2-0.1-0.3-0.2-0.5-0.3c-0.2-0.1-0.4-0.1-0.6-0.2l-0.5-0.1 c-0.1,0-0.2-0.1-0.3-0.1c-0.1,0-0.2-0.1-0.3-0.1c-0.1-0.1-0.2-0.1-0.2-0.2c-0.1-0.1-0.1-0.2-0.1-0.3c0-0.1,0-0.3,0.1-0.4 c0.1-0.1,0.2-0.2,0.3-0.3c0.1-0.1,0.3-0.1,0.5-0.1c0.3,0,0.5,0.1,0.7,0.2c0.2,0.1,0.3,0.3,0.3,0.5h1c0-0.3-0.1-0.6-0.3-0.8 c-0.2-0.2-0.4-0.4-0.7-0.6c-0.3-0.1-0.6-0.2-1-0.2c-0.4,0-0.7,0.1-1,0.2c-0.3,0.1-0.5,0.3-0.7,0.6c-0.2,0.2-0.3,0.5-0.3,0.8 c0,0.4,0.1,0.7,0.4,0.9c0.3,0.2,0.6,0.4,1.1,0.5l0.6,0.2c0.2,0,0.4,0.1,0.5,0.2c0.1,0.1,0.3,0.1,0.3,0.2c0.1,0.1,0.1,0.2,0.1,0.4 c0,0.2,0,0.3-0.1,0.4c-0.1,0.1-0.2,0.2-0.4,0.3c-0.2,0.1-0.4,0.1-0.6,0.1c-0.2,0-0.4,0-0.6-0.1c-0.2-0.1-0.3-0.2-0.4-0.3 c-0.1-0.1-0.2-0.3-0.2-0.5h-1c0,0.4,0.1,0.7,0.3,0.9c0.2,0.3,0.4,0.4,0.7,0.6c0.3,0.1,0.7,0.2,1.1,0.2c0.4,0,0.8-0.1,1.1-0.2 c0.3-0.1,0.5-0.3,0.7-0.6c0.2-0.2,0.2-0.5,0.2-0.8C68.3,16.3,68.3,16.1,68.2,15.9z" class="st0"/></g></svg>