<svg xmlns="http://www.w3.org/2000/svg" xmlns:xlink="http://www.w3.org/1999/xlink" id="Layer_1" x="0" y="0" version="1.1" viewBox="0 0 109.7 24" style="enable-background:new 0 0 109.7 24" xml:space="preserve"><style type="text/css">.st0{opacity:.1;enable-background:new}</style><path d="M1.8,20.5l9.3-17v17H1.8z M22.2,7.7l-9.3-4.2v17l9.3-4.2L17.5,12L22.2,7.7z"/><path d="M12.9,20.5l9.3-4.2l-9.3-8.6L12.9,20.5z" class="st0"/><g><path d="M34.3,8.2c0.3,0,0.6-0.1,0.8-0.3c0.2-0.2,0.3-0.4,0.3-0.7c0-0.3-0.1-0.6-0.3-0.8c-0.2-0.2-0.5-0.3-0.8-0.3h-6 c-0.4,0.1-0.6,0.2-0.8,0.4c-0.2,0.2-0.3,0.4-0.3,0.8v10.4c0,0.3,0.1,0.6,0.3,0.8s0.5,0.3,0.8,0.3h6c0.3,0,0.6-0.1,0.8-0.3 c0.2-0.2,0.3-0.4,0.3-0.7c0-0.3-0.1-0.5-0.3-0.7c-0.2-0.2-0.5-0.3-0.8-0.3h-4.9v-3.3h4.1c0.3,0,0.6-0.1,0.8-0.3 c0.2-0.2,0.3-0.4,0.3-0.7s-0.1-0.6-0.3-0.8c-0.2-0.2-0.5-0.3-0.8-0.3h-4.1V8.2H34.3z"/><path d="M38.8,5.4c-0.3,0-0.6,0.1-0.8,0.3s-0.3,0.5-0.3,0.8v11.1c0,0.3,0.1,0.6,0.3,0.8s0.5,0.3,0.8,0.3s0.6-0.1,0.8-0.3 c0.2-0.2,0.3-0.5,0.3-0.8V6.5c0-0.3-0.1-0.6-0.3-0.8C39.4,5.5,39.1,5.4,38.8,5.4z"/><path d="M49.8,10.4c-0.4-0.4-0.9-0.8-1.4-1S47.3,9,46.7,9c-0.8,0-1.5,0.2-2.2,0.6s-1.3,1-1.7,1.8c-0.6,0.7-0.9,1.6-0.9,2.7 c0,0.9,0.2,1.8,0.6,2.5c0.4,0.7,1,1.3,1.7,1.7s1.6,0.6,2.7,0.6c0.6,0,1.2-0.1,1.7-0.3c0.6-0.2,1-0.4,1.3-0.7 c0.3-0.3,0.5-0.6,0.5-0.9c0-0.2-0.1-0.5-0.3-0.6c-0.2-0.1-0.4-0.3-0.7-0.3c-0.2,0-0.4,0.1-0.6,0.2c-0.1,0.1-0.3,0.2-0.4,0.3 c-0.2,0.1-0.4,0.2-0.6,0.3C47.5,17,47.2,17,46.7,17s-0.9-0.1-1.4-0.4c-0.4-0.2-0.8-0.6-1-1C44.1,15.3,44,15,44,14.7h5.9 c0.3,0,0.5-0.1,0.8-0.3c0.2-0.2,0.3-0.4,0.3-0.7c0-0.6-0.1-1.3-0.4-1.8C50.5,11.3,50.2,10.8,49.8,10.4z M44.7,11.6 c0.2-0.2,0.5-0.4,0.8-0.5s0.6-0.1,1-0.1c0.4,0,0.7,0.1,1.1,0.2c0.3,0.2,0.6,0.4,0.8,0.7c0.2,0.3,0.3,0.6,0.4,0.9v0.1h-4.7 c0-0.1,0.1-0.3,0.1-0.4C44.3,12.1,44.5,11.8,44.7,11.6z"/><path d="M66.3,9.5c-0.5-0.4-1.1-0.6-2-0.6c-0.5,0-1,0.1-1.4,0.3s-0.8,0.5-1.1,0.8s-0.5,0.6-0.6,0.8c-0.2-0.5-0.4-0.9-0.8-1.3 c-0.5-0.5-1.2-0.7-2.1-0.7c-0.4,0-0.8,0.1-1.1,0.2c-0.3,0.1-0.6,0.3-0.9,0.5s-0.5,0.6-0.7,0.8c-0.1,0.1-0.1,0.2-0.2,0.2v-0.3 c0-0.3-0.1-0.6-0.3-0.8s-0.5-0.3-0.8-0.3c-0.3,0-0.6,0.1-0.8,0.3c-0.2,0.2-0.3,0.5-0.3,0.8v7.4c0,0.3,0.1,0.6,0.3,0.8 c0.2,0.2,0.5,0.3,0.8,0.3s0.6-0.1,0.8-0.3c0.2-0.2,0.3-0.5,0.3-0.8v-4.5c0-0.4,0.1-0.8,0.2-1.1s0.4-0.6,0.7-0.8s0.7-0.3,1.2-0.3 s0.8,0.1,1.1,0.3s0.4,0.4,0.5,0.8c0.1,0.3,0.1,0.7,0.1,1.1v4.6c0,0.3,0.1,0.6,0.3,0.8c0.2,0.2,0.5,0.3,0.8,0.3s0.6-0.1,0.8-0.3 s0.3-0.5,0.3-0.8v-4.6c0-0.4,0.1-0.8,0.2-1.1s0.4-0.6,0.7-0.8s0.7-0.3,1.2-0.3c0.5,0,0.8,0.1,1.1,0.3c0.3,0.2,0.4,0.4,0.5,0.8 c0.1,0.3,0.1,0.7,0.1,1.1v4.6c0,0.3,0.1,0.6,0.3,0.8c0.2,0.2,0.5,0.3,0.8,0.3c0.3,0,0.6-0.1,0.8-0.3c0.2-0.2,0.3-0.5,0.3-0.8v-4.6 c0-0.8-0.1-1.4-0.3-2.1C67.1,10.4,66.8,9.9,66.3,9.5z"/><path d="M77.4,10.4C77,10,76.5,9.6,76,9.4S74.9,9,74.3,9c-0.8,0-1.5,0.2-2.2,0.6c-0.7,0.4-1.3,1-1.7,1.8s-0.7,1.7-0.7,2.8 c0,0.9,0.2,1.8,0.6,2.5c0.4,0.7,1,1.3,1.7,1.7c0.7,0.4,1.6,0.6,2.7,0.6c0.6,0,1.2-0.1,1.7-0.3c0.6-0.2,1-0.4,1.3-0.7 c0.3-0.3,0.5-0.6,0.5-0.9c0-0.2-0.1-0.5-0.3-0.6c-0.2-0.1-0.4-0.3-0.7-0.3c-0.2,0-0.4,0.1-0.6,0.2c-0.1,0.1-0.3,0.2-0.4,0.3 c-0.2,0.1-0.4,0.2-0.6,0.3c-0.3,0.1-0.6,0.1-1.1,0.1s-0.9-0.1-1.4-0.4c-0.4-0.2-0.8-0.6-1-1c-0.2-0.3-0.3-0.6-0.3-0.9h5.9 c0.3,0,0.5-0.1,0.8-0.3c0.2-0.2,0.3-0.4,0.3-0.7c0-0.6-0.1-1.3-0.4-1.8C78.2,11.3,77.8,10.8,77.4,10.4z M72.4,11.6 c0.2-0.2,0.5-0.4,0.8-0.5c0.3-0.1,0.6-0.1,1-0.1s0.7,0.1,1.1,0.2c0.3,0.2,0.6,0.4,0.8,0.7c0.2,0.3,0.3,0.6,0.4,0.9v0.1h-4.7 c0-0.1,0.1-0.3,0.1-0.4C72,12.1,72.2,11.8,72.4,11.6z"/><path d="M88,9.5c-0.5-0.4-1.1-0.6-2-0.6c-0.4,0-0.8,0.1-1.1,0.2c-0.3,0.1-0.7,0.3-0.9,0.5c-0.3,0.2-0.5,0.4-0.7,0.7 c-0.1,0.1-0.1,0.2-0.2,0.2v-0.3c0-0.3-0.1-0.6-0.3-0.8c-0.3-0.2-0.5-0.3-0.8-0.3c-0.3,0-0.6,0.1-0.8,0.3c-0.2,0.2-0.3,0.5-0.3,0.8 v7.4c0,0.3,0.1,0.6,0.3,0.8c0.2,0.2,0.5,0.3,0.8,0.3c0.3,0,0.6-0.1,0.8-0.3c0.2-0.2,0.3-0.5,0.3-0.8v-4.5c0-0.4,0.1-0.8,0.3-1.1 c0.2-0.3,0.4-0.6,0.8-0.8c0.4-0.2,0.7-0.3,1.2-0.3s0.9,0.1,1.1,0.3c0.3,0.2,0.4,0.4,0.5,0.8c0.1,0.3,0.2,0.7,0.2,1.1v4.6 c0,0.3,0.1,0.6,0.3,0.8s0.5,0.3,0.8,0.3s0.6-0.1,0.8-0.3s0.3-0.5,0.3-0.8v-4.6c0-0.8-0.1-1.4-0.3-2.1C88.8,10.4,88.5,9.9,88,9.5z"/><path d="M96.2,11.3c0.3,0,0.5-0.1,0.7-0.3s0.3-0.4,0.3-0.7s-0.1-0.5-0.3-0.7c-0.2-0.2-0.4-0.3-0.7-0.3h-1.3V8.2 c0-0.3-0.1-0.6-0.3-0.8c-0.2-0.2-0.4-0.3-0.7-0.3s-0.6,0.1-0.8,0.3s-0.3,0.5-0.3,0.8v1.2h-0.9c-0.3,0-0.5,0.1-0.7,0.3 c-0.2,0.1-0.3,0.3-0.3,0.6s0.1,0.5,0.3,0.7c0.2,0.2,0.4,0.3,0.7,0.3h0.8v5c0,0.6,0.1,1,0.3,1.4s0.4,0.6,0.7,0.7 c0.3,0.2,0.6,0.3,0.9,0.3s0.6,0.1,0.8,0.1c0.4,0,0.8-0.1,1.2-0.3s0.5-0.5,0.5-0.8s-0.1-0.5-0.2-0.6c-0.1-0.2-0.3-0.2-0.5-0.2 s-0.3,0-0.4,0.1c-0.1,0.1-0.3,0.1-0.4,0.1s-0.3,0-0.4-0.1s-0.2-0.1-0.3-0.2c0-0.3,0-0.5,0-0.6v-4.9C94.9,11.3,96.2,11.3,96.2,11.3z"/><path d="M106.3,14.8c-0.2-0.3-0.4-0.6-0.8-0.8c-0.3-0.2-0.7-0.4-1-0.5c-0.4-0.1-0.7-0.2-1.1-0.3c-0.3-0.1-0.7-0.2-1-0.3 s-0.5-0.2-0.7-0.4s-0.3-0.4-0.3-0.7s0.1-0.5,0.2-0.7c0.2-0.1,0.3-0.2,0.5-0.3s0.4-0.1,0.6-0.1c0.4,0,0.8,0.1,1.2,0.2 c0.3,0.2,0.6,0.4,0.8,0.6c0.2,0.1,0.4,0.2,0.6,0.2s0.4,0,0.6-0.2c0.3-0.2,0.4-0.4,0.3-0.7c0-0.3-0.1-0.5-0.2-0.6 c-0.3-0.3-0.6-0.6-0.9-0.8c-0.2-0.1-0.6-0.2-1-0.3S103.3,9,102.9,9c-0.6,0-1.1,0.1-1.7,0.3s-1,0.6-1.3,1s-0.5,0.9-0.5,1.5 c0,0.5,0.1,1,0.3,1.3s0.5,0.6,0.8,0.8s0.7,0.4,1.1,0.5s0.8,0.3,1.1,0.4c0.4,0.1,0.7,0.2,1,0.3s0.5,0.2,0.7,0.4s0.3,0.4,0.3,0.6 c0,0.3-0.1,0.5-0.2,0.7c-0.1,0.2-0.4,0.3-0.6,0.3s-0.4,0.1-0.6,0.1c-0.6,0-1.1-0.1-1.4-0.3c-0.4-0.2-0.8-0.5-1.1-0.8 c-0.2-0.2-0.4-0.3-0.6-0.3s-0.4,0-0.6,0.2c-0.3,0.2-0.5,0.4-0.5,0.7c0,0.3,0,0.5,0.2,0.6c0.5,0.6,1.1,1.1,1.8,1.3 c0.7,0.2,1.4,0.4,2.1,0.4c0.6,0,1.1-0.1,1.7-0.3s1-0.5,1.3-1c0.4-0.4,0.5-1,0.5-1.6C106.6,15.5,106.5,15.1,106.3,14.8z"/></g></svg>