<svg xmlns="http://www.w3.org/2000/svg" xmlns:xlink="http://www.w3.org/1999/xlink" id="Layer_1" x="0" y="0" baseProfile="tiny" overflow="visible" version="1.2" viewBox="0 0 800 800" xml:space="preserve"><path d="M309.5,562.8c0,2.2-2.5,4-5.7,4c-3.6,0.3-6.2-1.4-6.2-4c0-2.2,2.5-4,5.7-4C306.6,558.5,309.5,560.2,309.5,562.8z M275.2,557.8c-0.8,2.2,1.4,4.7,4.7,5.4c2.9,1.1,6.2,0,6.8-2.2c0.7-2.2-1.4-4.7-4.7-5.7C279.1,554.5,275.9,555.6,275.2,557.8	L275.2,557.8z M323.9,555.9c-3.2,0.8-5.4,2.9-5.1,5.4c0.3,2.2,3.2,3.6,6.5,2.9c3.2-0.8,5.4-2.9,5.1-5.1	C330.1,557,327.1,555.6,323.9,555.9z M396.5,133.3c-153,0-270,116.1-270,269.1c0,122.3,77,227,186.9,263.8	c14.1,2.5,19.1-6.2,19.1-13.3c0-6.8-0.3-44.6-0.3-67.7c0,0-77.2,16.5-93.4-32.9c0,0-12.6-32.1-30.7-40.4c0,0-25.3-17.3,1.8-17	c0,0,27.5,2.2,42.6,28.5c24.2,42.6,64.6,30.3,80.4,23c2.5-17.6,9.7-29.9,17.6-37.2c-61.6-6.8-123.8-15.8-123.8-121.9	c0-30.3,8.4-45.5,26-65c-2.9-7.2-12.2-36.7,2.9-74.9c23-7.2,76.1,29.8,76.1,29.8c22.1-6.2,45.8-9.4,69.3-9.4	c23.5,0,47.2,3.2,69.3,9.4c0,0,53-37.1,76.1-29.8c15.1,38.3,5.7,67.7,2.9,74.9c17.6,19.5,28.5,34.7,28.5,65	c0,106.4-65,114.9-126.6,121.9c10.1,8.7,18.7,25.3,18.7,51.2c0,37.2-0.3,83.2-0.3,92.2c0,7.2,5.1,15.9,19.1,13.3	c110.3-36.6,185.1-141.3,185.1-263.6C673.5,249.5,549.4,133.3,396.5,133.3z M233.7,513.7c-1.4,1.1-1.1,3.6,0.8,5.7	c1.8,1.8,4.3,2.5,5.7,1.1c1.4-1.1,1.1-3.6-0.8-5.7C237.7,513,235.1,512.3,233.7,513.7z M221.8,504.8c-0.8,1.4,0.3,3.2,2.5,4.3	c1.8,1.1,4,0.8,4.7-0.8c0.8-1.4-0.3-3.2-2.5-4.3C224.3,503.3,222.6,503.7,221.8,504.8z M257.5,544c-1.8,1.4-1.1,4.7,1.4,6.8	c2.5,2.5,5.7,2.9,7.2,1.1c1.4-1.4,0.8-4.7-1.4-6.8C262.3,542.6,258.9,542.3,257.5,544z M244.9,527.8c-1.8,1.1-1.8,4,0,6.5	c1.8,2.5,4.7,3.6,6.2,2.5c1.8-1.4,1.8-4.3,0-6.8C249.6,527.5,246.7,526.4,244.9,527.8L244.9,527.8z"/></svg>